<?xml version="1.0" encoding="UTF-8" standalone="no"?>
<svg
   xmlns:dc="http://purl.org/dc/elements/1.1/"
   xmlns:cc="http://creativecommons.org/ns#"
   xmlns:rdf="http://www.w3.org/1999/02/22-rdf-syntax-ns#"
   xmlns:svg="http://www.w3.org/2000/svg"
   xmlns="http://www.w3.org/2000/svg"
   xmlns:sodipodi="http://sodipodi.sourceforge.net/DTD/sodipodi-0.dtd"
   xmlns:inkscape="http://www.inkscape.org/namespaces/inkscape"
   xml:space="preserve"
   width="29.1667in"
   height="29.1667in"
   version="1.1"
   style="shape-rendering:geometricPrecision; text-rendering:geometricPrecision; image-rendering:optimizeQuality; fill-rule:evenodd; clip-rule:evenodd"
   viewBox="0 0 29167 29167"
   id="svg24"
   sodipodi:docname="logo.svg"
   inkscape:version="1.0 (4035a4f, 2020-05-01)"
   inkscape:export-filename="/Users/aronnebrivio/Downloads/logo-dark.png"
   inkscape:export-xdpi="96"
   inkscape:export-ydpi="96"><metadata
   id="metadata28"><rdf:RDF><cc:Work
       rdf:about=""><dc:format>image/svg+xml</dc:format><dc:type
         rdf:resource="http://purl.org/dc/dcmitype/StillImage" /><dc:title /></cc:Work></rdf:RDF></metadata><sodipodi:namedview
   inkscape:document-rotation="0"
   pagecolor="#ffffff"
   bordercolor="#666666"
   borderopacity="1"
   objecttolerance="10"
   gridtolerance="10"
   guidetolerance="10"
   inkscape:pageopacity="0"
   inkscape:pageshadow="2"
   inkscape:window-width="1920"
   inkscape:window-height="978"
   id="namedview26"
   showgrid="false"
   inkscape:zoom="0.28"
   inkscape:cx="569.46915"
   inkscape:cy="1400.0016"
   inkscape:window-x="0"
   inkscape:window-y="23"
   inkscape:window-maximized="1"
   inkscape:current-layer="layer2" />
 <defs
   id="defs12">
  <style
   type="text/css"
   id="style10">
   <![CDATA[
    .str0 {stroke:#221F20;stroke-width:7.08661}
    .fil1 {fill:none}
    .fil2 {fill:#221F20}
    .fil0 {fill:#FEFEFE}
   ]]>
  </style>
 
  
  
  
  
  
 </defs>
 
<g
   inkscape:groupmode="layer"
   id="layer1"
   inkscape:label="circle"
   style="display:inline"><ellipse
     style="fill:#2d2d2d;fill-opacity:1;stroke-width:16.2284"
     id="path75"
     cx="14614.898"
     cy="14574.023"
     rx="14588.178"
     ry="14569.571" /></g><g
   inkscape:groupmode="layer"
   id="layer2"
   inkscape:label="text"
   style="display:inline"><path
     style="clip-rule:evenodd;fill:#ffffff;fill-rule:evenodd;stroke-width:1.35987;image-rendering:optimizeQuality;shape-rendering:geometricPrecision;text-rendering:geometricPrecision"
     id="path19"
     d="m 18713.433,9744.854 2156.228,1067.072 1115.954,553.703 v 2236.282 h -3273.558 v 2105.898 h 3273.558 v 2238.946 l -1115.954,551 -2156.228,1069.748 -1115.954,551.001 V 9192.5094 l 1115.954,553.6879 z M 17597.479,6829.9245 15441.252,5762.8644 V 23548.148 l 2156.227,-1067.06 1115.954,-553.689 798.093,-396.452 1358.135,-671.952 1115.954,-553.689 2157.604,-1067.06 v -3533.124 l -2157.604,-1053.621 2157.604,-1053.621 v -3530.49 l -2157.604,-1067.0598 -1115.954,-553.689 -1358.135,-670.6079 -798.093,-396.4518 -1115.954,-553.6888 z"
     class="fil2" /><path
     style="clip-rule:evenodd;fill:#ffffff;fill-rule:evenodd;stroke-width:1.35987;image-rendering:optimizeQuality;shape-rendering:geometricPrecision;text-rendering:geometricPrecision"
     id="path21"
     d="M 10650.981,13589.486 H 7377.4261 V 11350.541 L 8493.3799,10799.54 10649.606,9732.479 11765.56,9178.7901 v 4409.3529 h -1115.954 z m -5429.7823,2105.898 v 3530.438 l 2156.2274,1069.748 v -4598.841 h 4389.5089 v 6770.591 l 2156.228,1067.059 V 5749.1458 l -2156.228,1069.7479 -1115.954,551.0009 -798.0908,396.4517 -1358.1348,671.9526 -1115.9537,553.6883 -2156.2271,1067.0608 v 5639.024 z"
     class="fil2" /></g></svg>
